<svg width="27" height="19" viewBox="0 0 27 19" fill="none" xmlns="http://www.w3.org/2000/svg">
<path d="M0 4.84047C0.145173 4.23237 0.278248 3.67292 0.411324 3.10131C0.447617 2.9432 0.496008 2.78509 0.520204 2.62699C0.544399 2.48104 0.616986 2.4324 0.762159 2.4324C1.33075 2.44456 1.89935 2.46888 2.46794 2.46888C3.15752 2.48104 3.83499 2.48104 4.51247 2.28645C5.10526 2.11618 5.4319 1.73916 5.49239 1.1189C5.51658 0.814853 5.55288 0.510803 5.56497 0.206754C5.57707 0.0486478 5.62546 0 5.78273 0C6.46021 0.012162 7.12559 0.0243238 7.80306 0.0243238C7.96033 0.0243238 8.02082 0.0608099 7.99663 0.231078C7.89984 1.60538 7.82726 2.97969 7.71838 4.35399C7.62159 5.60667 7.51271 6.85936 7.40383 8.11204C7.30705 9.19446 7.21027 10.2769 7.33125 11.3593C7.39174 11.8823 7.50062 12.4052 7.65789 12.9039C7.99662 13.9133 8.72249 14.4971 9.78709 14.6673C10.8033 14.8376 11.8316 14.9228 12.872 14.9106C14.348 14.8984 15.8239 14.8619 17.2998 14.8255C18.6064 14.8011 19.9129 14.7646 21.2074 14.7282C21.3889 14.7282 21.4493 14.789 21.4614 14.9592C21.5945 16.0052 21.7397 17.0511 21.8728 18.097C21.8849 18.17 21.8849 18.2308 21.897 18.2916C21.9695 18.7295 21.9333 18.6443 21.5703 18.6565C20.2396 18.7051 18.9088 18.7538 17.566 18.8024C16.5497 18.8389 15.5335 18.8632 14.5052 18.8876C12.618 18.924 10.7186 18.9849 8.83137 18.997C7.69418 19.0092 6.54489 18.9849 5.4077 18.9119C4.04065 18.8389 3.12122 18.0119 2.6978 16.5889C2.44375 15.7011 2.38326 14.8011 2.40746 13.889C2.43165 12.6606 2.60102 11.4323 2.79458 10.2161C3.00025 8.86608 3.21801 7.5161 3.41157 6.16612C3.45996 5.80127 3.44786 5.43641 3.47206 5.07155C3.48416 4.93776 3.42367 4.87695 3.27849 4.87695C2.37116 4.86479 1.47593 4.85263 0.568595 4.84047C0.411324 4.86479 0.21776 4.85263 0 4.84047Z" fill="#009245"/>
<path d="M22.889 13.6701C22.7317 13.6701 22.647 13.6093 22.6108 13.4633C22.4777 12.8431 22.3204 12.2228 22.2236 11.5904C22.018 10.3134 21.8728 9.02419 21.4494 7.80799C21.28 7.30935 21.038 6.82287 20.7719 6.37288C20.2759 5.5337 19.5016 5.07155 18.5459 4.90128C17.6991 4.75533 16.8522 4.74317 15.9933 4.77966C15.594 4.80398 15.1948 4.80398 14.7956 4.80398C12.9325 4.81614 11.0574 4.81614 9.19433 4.82831C8.96447 4.82831 8.96447 4.81614 8.97657 4.58507C9.03706 3.95264 9.09754 3.30806 9.14594 2.67564C9.15803 2.56618 9.19433 2.52969 9.30321 2.52969C9.81131 2.52969 10.3073 2.50537 10.8154 2.50537C13.6947 2.50537 16.574 2.49321 19.4411 2.50537C20.1428 2.50537 20.8566 2.5905 21.5582 2.67564C22.8164 2.83374 23.6633 3.53914 24.2198 4.6702C24.6553 5.57019 24.9698 6.50666 25.2481 7.45529C25.8167 9.35256 26.3732 11.262 26.9297 13.1593C27.0627 13.6093 27.0385 13.6214 26.5788 13.6214C25.9739 13.6214 23.5181 13.6701 22.889 13.6701Z" fill="#009245"/>
<path d="M9.02496 11.9917C9.42419 11.9795 9.78712 11.9552 10.138 11.9552C12.001 11.9552 13.8641 11.9552 15.7271 11.9552C16.2473 11.9552 16.7554 11.9431 17.2756 11.9309C17.687 11.9187 18.0862 12.016 18.4491 12.2106C19.1024 12.5755 19.7315 12.9647 20.3727 13.3539C20.4453 13.3903 20.5057 13.4511 20.5662 13.4998C20.5662 13.5241 20.5541 13.5484 20.5541 13.5728C20.3364 13.5728 20.1186 13.5728 19.913 13.5728C18.8725 13.5971 17.8321 13.6214 16.7796 13.6336C15.6303 13.6457 14.4932 13.6457 13.3439 13.6214C12.2672 13.5971 11.1905 13.512 10.1743 13.0741C9.76293 12.9039 9.39999 12.6728 9.17014 12.2714C9.12175 12.1985 9.08545 12.1133 9.02496 11.9917Z" fill="#009245"/>
<path d="M20.6993 13.0498C20.4694 12.916 20.2637 12.7944 20.046 12.6606C19.5258 12.3322 19.0056 11.9917 18.4854 11.6633C18.2313 11.5052 18.1103 11.262 18.074 10.9823C17.8684 9.42554 17.6748 7.8688 17.4813 6.29991C17.4692 6.16613 17.4571 6.02018 17.4329 5.86208C17.7837 5.89856 18.074 6.02018 18.3523 6.17829C18.7878 6.43369 19.1145 6.78639 19.3443 7.22422C20.1549 8.7323 20.6267 10.3498 20.7476 12.0647C20.7597 12.3444 20.7356 12.6241 20.7356 12.9039C20.7235 12.9403 20.7114 12.989 20.6993 13.0498Z" fill="#009245"/>
<path d="M17.0337 11.3715C16.8159 11.3715 16.5981 11.3715 16.3804 11.3715C14.9408 11.3836 13.489 11.3836 12.0494 11.3958C11.0211 11.4079 10.0049 11.4079 8.97655 11.4323C8.83138 11.4323 8.78299 11.3836 8.77089 11.2498C8.74669 10.8485 8.7104 10.4471 8.66201 10.0458C8.63781 9.88769 8.6983 9.82688 8.85557 9.82688C10.7065 9.83904 12.5575 9.85121 14.3964 9.87553C14.6141 9.87553 14.8561 9.96066 15.0496 10.0701C15.5577 10.3498 16.0537 10.6661 16.5498 10.9701C16.7191 11.0674 16.8764 11.189 17.0337 11.3106C17.0458 11.3228 17.0337 11.3471 17.0337 11.3715Z" fill="#009245"/>
<path d="M17.191 10.8607C16.949 10.7025 16.7312 10.5809 16.5256 10.435C16.1385 10.1674 15.7634 9.89986 15.3642 9.64445C14.9771 9.40121 14.7835 9.03636 14.7593 8.59852C14.6867 7.68638 14.6383 6.76207 14.5657 5.84992C14.5536 5.70397 14.602 5.65532 14.7472 5.65532C15.2432 5.631 15.7392 5.59451 16.2352 5.69181C16.5014 5.74046 16.6466 5.87424 16.6708 6.1418C16.7796 6.95666 16.9006 7.75935 16.9853 8.5742C17.07 9.27959 17.1184 9.98499 17.1789 10.6904C17.191 10.7147 17.191 10.7512 17.191 10.8607Z" fill="#009245"/>
<path d="M13.8036 9.3404C13.7552 9.3404 13.6947 9.35256 13.6463 9.35256C12.9204 9.35256 12.1945 9.36473 11.4566 9.36473C10.5976 9.36473 9.7387 9.37689 8.87976 9.38905C8.72249 9.38905 8.6499 9.35256 8.662 9.17013C8.6983 8.37961 8.71039 7.58908 8.74669 6.79855C8.75878 6.64044 8.79508 6.48234 8.83137 6.26342C10.5493 7.24854 12.2308 8.18501 13.8277 9.29175C13.8157 9.30392 13.8157 9.32824 13.8036 9.3404Z" fill="#009245"/>
<path d="M14.0576 8.78095C12.3881 7.83232 10.8033 6.82287 9.27899 5.71613C9.27899 5.70397 9.29109 5.67965 9.29109 5.66749C9.35158 5.66749 9.39997 5.65532 9.46046 5.65532C10.5735 5.65532 11.6985 5.64316 12.8115 5.65532C13.114 5.65532 13.4164 5.69181 13.7189 5.69181C13.8399 5.69181 13.8882 5.74046 13.9003 5.86208C13.9366 6.56747 13.9729 7.2607 14.0092 7.9661C14.0213 8.2215 14.0334 8.4769 14.0576 8.78095Z" fill="#009245"/>
</svg>
