<svg width="26" height="27" viewBox="0 0 26 27" fill="none" xmlns="http://www.w3.org/2000/svg">
<path d="M13 1.5C14.5759 1.5 16.1363 1.81039 17.5922 2.41345C19.0481 3.0165 20.371 3.90042 21.4853 5.01472C22.5996 6.12902 23.4835 7.45189 24.0866 8.9078C24.6896 10.3637 25 11.9241 25 13.5C25 15.0759 24.6896 16.6363 24.0866 18.0922C23.4835 19.5481 22.5996 20.871 21.4853 21.9853C20.371 23.0996 19.0481 23.9835 17.5922 24.5866C16.1363 25.1896 14.5759 25.5 13 25.5C11.4241 25.5 9.86371 25.1896 8.4078 24.5866C6.95189 23.9835 5.62902 23.0996 4.51472 21.9853C3.40042 20.871 2.5165 19.5481 1.91345 18.0922C1.31039 16.6363 1 15.0759 1 13.5C1 11.9241 1.31039 10.3637 1.91345 8.9078C2.5165 7.45189 3.40042 6.12902 4.51472 5.01472C5.62902 3.90042 6.95189 3.0165 8.4078 2.41345C9.86371 1.81039 11.4241 1.5 13 1.5ZM13 1.5V6.83333M13 6.83333L19.3467 11.4333M13 6.83333L6.65333 11.4333M19.3467 11.4333L17 18.8333M19.3467 11.4333L24.3333 9.5M17 18.8333H9L6.65333 11.4333M17 18.8333L20.3333 22.8333M6.65333 11.4333L1.66667 9.5M9.08 18.9L5.66667 22.8333" stroke="white" stroke-width="1.5" stroke-linecap="round" stroke-linejoin="round"/>
</svg>
