<svg width="25" height="25" viewBox="0 0 25 25" fill="none" xmlns="http://www.w3.org/2000/svg">
<path d="M12.503 23.1988C18.4318 23.1988 23.2381 18.3963 23.2381 12.4721C23.2381 6.54783 18.4318 1.7453 12.503 1.7453C6.5742 1.7453 1.76794 6.54783 1.76794 12.4721C1.76794 18.3963 6.5742 23.1988 12.503 23.1988Z" fill="#203163"/>
<path d="M23.8777 16.3344C23.4492 16.3028 23.3885 16.347 23.2394 16.7562C23.1901 16.8926 23.1079 17.0164 23.0523 17.1503C22.9209 17.4723 22.9992 17.7161 23.2887 17.9055C23.611 18.1177 23.6287 18.2061 23.4315 18.5408C23.3544 18.6722 23.2925 18.8124 23.2204 18.9475C23.0599 19.2481 22.845 19.3239 22.529 19.1913C22.0904 19.0081 22.0247 19.0284 21.7517 19.4073C21.6758 19.5134 21.5747 19.6018 21.4913 19.7028C21.2713 19.9693 21.2726 20.2105 21.4913 20.4707C21.782 20.8168 21.7782 20.8471 21.4761 21.1982C21.3661 21.3245 21.2802 21.471 21.169 21.5961C20.9743 21.8171 20.8163 21.8297 20.5787 21.6579C20.4422 21.5594 20.3094 21.4584 20.1742 21.3599C20.0794 21.2917 19.9922 21.2917 19.8974 21.37C19.6724 21.5556 19.4424 21.735 19.211 21.9131C19.0341 22.0495 19.0025 22.2187 19.0859 22.4183C19.1175 22.4915 19.1542 22.5635 19.1858 22.6368C19.3033 22.9109 19.2515 23.0574 18.9936 23.1938C18.8192 23.2847 18.6473 23.3807 18.4716 23.4716C18.2807 23.5701 18.0848 23.5638 17.9584 23.387C17.6614 22.974 17.3201 22.9109 16.9017 23.1912C16.8486 23.2266 16.7791 23.2367 16.7159 23.2557C16.3253 23.3719 16.2419 23.5108 16.3241 23.9137C16.3949 24.261 16.271 24.453 15.9209 24.5389C15.7654 24.5768 15.6074 24.6096 15.4557 24.6589C15.1865 24.746 15.0879 24.7182 14.9539 24.4707C14.8364 24.2534 14.6885 24.069 14.4534 23.9705C14.0729 23.8114 13.7228 23.8897 13.4005 24.1221C13.2501 24.2307 13.2374 24.4075 13.2235 24.5755C13.1919 24.943 13.1161 25.0112 12.7445 24.9986C12.5549 24.9923 12.3653 24.991 12.1757 24.986C11.9608 24.9809 11.8205 24.8635 11.7977 24.6614C11.7434 24.1612 11.4944 23.9124 10.9787 23.9528C10.9167 23.9579 10.8523 23.9213 10.7878 23.9086C10.4314 23.8329 10.2266 23.9465 10.1103 24.2837C9.97379 24.6765 9.83728 24.7435 9.43407 24.6248C9.29503 24.5843 9.15093 24.5553 9.00937 24.5212C8.72623 24.4517 8.59983 24.2597 8.64534 23.9693C8.72118 23.4855 8.65418 23.3769 8.20167 23.2279C8.09929 23.1938 8.00323 23.1369 7.90717 23.0864C7.58232 22.9172 7.33837 22.974 7.13107 23.2721C6.86311 23.6573 6.81381 23.6649 6.41818 23.4123C6.29558 23.334 6.1578 23.2809 6.0314 23.2102C5.74448 23.051 5.68128 22.8515 5.81652 22.5509C6.00739 22.129 5.98084 22.0381 5.61049 21.7704C5.51696 21.7022 5.43227 21.6213 5.34632 21.5417C5.0556 21.2778 4.81291 21.2727 4.51335 21.5266C4.23021 21.7678 4.08486 21.7552 3.82827 21.4837C3.73347 21.3839 3.62223 21.2993 3.52112 21.2045C3.26453 20.9646 3.2443 20.7246 3.45412 20.4505C3.75622 20.0552 3.75243 20.0527 3.42379 19.6586C3.33152 19.5475 3.26579 19.4136 3.17984 19.2961C2.9953 19.046 2.79432 18.9968 2.50992 19.1256C2.08901 19.3151 1.97652 19.2772 1.75911 18.8818C1.6997 18.7732 1.62007 18.6772 1.55435 18.5711C1.38244 18.2933 1.42668 18.0634 1.6858 17.8639C2.09407 17.5494 2.10165 17.5039 1.86529 17.0328C1.80967 16.9229 1.78313 16.8004 1.74142 16.6829C1.62892 16.3659 1.4507 16.2649 1.11827 16.3293C0.709999 16.4076 0.563376 16.3066 0.46984 15.8961C0.434449 15.7407 0.383889 15.5879 0.334593 15.4351C0.258754 15.1976 0.294145 15.0511 0.519136 14.9716C1.17894 14.7379 1.14734 14.5068 1.04369 13.9056C0.952685 13.3789 0.918558 13.3385 0.399057 13.2387C0.0324996 13.168 -0.01174 13.1099 0.00216389 12.7487C0.00974783 12.5516 0.00848342 12.3546 0.00469144 12.1576C0.00089947 11.9504 0.0931711 11.8077 0.299202 11.7938C0.804798 11.761 1.0854 11.5349 1.05633 11.0007C1.0538 10.9514 1.07908 10.9021 1.09046 10.8516C1.17768 10.455 1.04875 10.2176 0.673343 10.0837C0.272658 9.94099 0.248642 9.88795 0.377569 9.47494C0.435713 9.28675 0.48248 9.09604 0.535568 8.90659C0.5836 8.73482 0.692303 8.65146 0.875582 8.66914C0.999453 8.68051 1.12332 8.6843 1.24593 8.6944C1.49367 8.71461 1.6365 8.62746 1.70729 8.39128C1.76038 8.21446 1.84885 8.05658 1.92849 7.89365C2.08901 7.56527 2.02708 7.34298 1.72625 7.14342C1.39508 6.92366 1.36854 6.80494 1.56825 6.46266C1.67063 6.28584 1.77428 6.11028 1.86908 5.92967C1.96388 5.75159 2.09533 5.69475 2.28493 5.77179C2.39996 5.81853 2.51498 5.86399 2.63253 5.90188C2.87901 5.98019 3.05344 5.92083 3.20133 5.70485C3.29612 5.56592 3.3884 5.42826 3.49584 5.29817C3.71324 5.03546 3.70819 4.8157 3.49584 4.55046C3.20891 4.19303 3.21649 4.10588 3.54892 3.78508C3.6374 3.69919 3.71451 3.60068 3.7954 3.50722C4.02798 3.24451 4.24665 3.22809 4.51588 3.45417C4.56644 3.49585 4.61447 3.54132 4.66882 3.57668C4.87485 3.71435 5.04296 3.71435 5.2275 3.5489C5.39056 3.40239 5.56246 3.26851 5.73816 3.13842C5.9682 2.96917 5.9998 2.80372 5.8734 2.54733C5.68886 2.17095 5.74068 1.98529 6.0946 1.76173C6.16286 1.71879 6.23364 1.6809 6.30316 1.64301C6.76325 1.39672 6.84162 1.41062 7.19807 1.80341C7.44202 2.07244 7.56842 2.09517 7.88189 1.91582C8.01713 1.83878 8.16628 1.80341 8.31038 1.75416C8.62764 1.64427 8.74266 1.44219 8.67946 1.11128C8.60489 0.724803 8.68452 0.595976 9.06498 0.489883C9.2609 0.435573 9.46061 0.390105 9.65653 0.332006C9.83602 0.277697 9.95104 0.337058 10.0256 0.503776C10.0913 0.650285 10.1596 0.795531 10.2354 0.935725C10.3252 1.10244 10.4604 1.17696 10.6538 1.11634C10.8156 1.06582 10.9837 1.06329 11.1518 1.05697C11.5525 1.04056 11.7522 0.837211 11.7712 0.440625C11.7901 0.0440398 11.8496 -0.0090066 12.2427 0.00109748C12.4247 0.00614953 12.6079 0.00614953 12.79 0.00109748C13.0238 -0.00521757 13.159 0.104664 13.2071 0.332006C13.2349 0.45957 13.2652 0.587135 13.2981 0.714699C13.3436 0.887731 13.4573 0.990035 13.6343 1.0153C13.9149 1.05697 14.1968 1.09613 14.4787 1.13528C14.6076 1.15296 14.6897 1.08097 14.7416 0.978668C14.8111 0.842263 14.8705 0.700806 14.9274 0.559348C14.9969 0.386316 15.1208 0.31685 15.3053 0.32948C15.6226 0.353477 15.9183 0.449466 16.2065 0.578293C16.3443 0.638918 16.3848 0.738696 16.3633 0.877627C16.3481 0.978668 16.3317 1.07971 16.3228 1.18075C16.2925 1.53692 16.3253 1.59628 16.6489 1.73016C16.8436 1.81099 17.0446 1.87919 17.2417 1.95498C17.4516 2.03454 17.6184 1.98529 17.7701 1.81731C18.1758 1.36389 18.1796 1.36768 18.7067 1.67711C18.732 1.69227 18.756 1.70743 18.7813 1.72258C19.2148 1.98529 19.2388 2.04718 19.1061 2.53849C18.9936 2.95528 19.0189 3.01464 19.3817 3.26219C19.4954 3.3405 19.6016 3.43017 19.7116 3.51479C19.9568 3.70425 20.1906 3.70425 20.427 3.51101C20.7973 3.20915 20.8833 3.2142 21.2069 3.55647C21.3219 3.67772 21.4382 3.80023 21.5532 3.92148C21.6935 4.06926 21.7062 4.22839 21.5987 4.3989C21.5216 4.52268 21.4445 4.64645 21.3712 4.77275C21.284 4.92305 21.2979 5.07335 21.4192 5.1946C21.5507 5.32595 21.643 5.48004 21.7428 5.63286C21.9615 5.9663 22.2155 6.03324 22.5669 5.8602C22.9006 5.69601 23.0043 5.73264 23.1901 6.06481C23.2571 6.1848 23.3392 6.29721 23.4138 6.41467C23.6085 6.71905 23.568 6.95271 23.2811 7.175C22.9196 7.45539 22.8956 7.57664 23.1029 7.98838C23.1686 8.11847 23.2141 8.2574 23.271 8.39128C23.3847 8.65904 23.563 8.74745 23.8474 8.68177C24.2834 8.58073 24.4086 8.65777 24.5185 9.08846C24.5527 9.22234 24.5994 9.35369 24.6386 9.48505C24.722 9.75912 24.6525 9.92836 24.401 10.0686C24.3947 10.0723 24.3871 10.0749 24.3808 10.0774C23.8335 10.3035 23.8701 10.3186 23.9257 10.9969C23.9295 11.0398 23.9409 11.0828 23.9472 11.1257C24.0306 11.7143 24.0306 11.7143 24.607 11.7749C24.9306 11.809 25.0203 11.9214 24.9963 12.2485C24.9824 12.4304 24.9685 12.6123 24.966 12.7941C24.9622 12.9987 24.8573 13.1187 24.6715 13.1794C24.6576 13.1844 24.6437 13.1895 24.6298 13.1907C24.1216 13.2425 23.9384 13.5494 23.9156 14.0306C23.8865 14.6596 23.6868 14.628 24.3934 14.9286C24.5868 15.0107 24.6778 15.1395 24.6538 15.3543C24.6348 15.5286 24.6133 15.7028 24.5602 15.8696C24.4402 16.2737 24.2999 16.3659 23.8777 16.3344ZM12.4904 22.7189C18.1025 22.7189 22.7085 18.0862 22.687 12.462C22.6668 6.90093 18.0924 2.33514 12.4929 2.3263C6.83783 2.31746 2.28872 6.97418 2.29252 12.5264C2.29631 18.1973 6.95917 22.6949 12.4904 22.7189Z" fill="#EFAE1C"/>
<path d="M14.1866 15.8077C14.2448 16.0603 14.2435 16.3066 14.1614 16.5592C14.0842 16.7954 14.2347 16.9785 14.3598 17.1578C14.4862 17.3385 14.4736 17.3877 14.2688 17.4749C14.179 17.5128 14.0868 17.5254 13.9907 17.5229C13.6621 17.514 13.585 17.389 13.7253 17.0985C13.7518 17.0442 13.81 16.9949 13.7771 16.9128C13.6254 16.9179 13.5799 17.0429 13.5167 17.1414C13.3815 17.3523 13.2209 17.5229 12.9467 17.5279C12.8493 17.5292 12.7495 17.5279 12.7065 17.4193C12.6686 17.3246 12.7507 17.2778 12.8038 17.2185C13.1198 16.8648 13.4333 16.5087 13.748 16.155C13.8416 16.0502 13.8668 15.9441 13.7834 15.8191C13.5976 15.5412 13.4156 15.2595 13.2209 14.964C13.0806 15.1408 13.293 15.2949 13.2096 15.4679C12.8771 15.2924 12.7849 14.9817 12.7482 14.6558C12.7217 14.4247 12.771 14.1797 12.4701 14.0824C12.4044 14.0609 12.4335 13.965 12.4284 13.9031C12.3981 13.4837 12.4967 13.0771 12.5447 12.6641C12.5864 12.3028 12.5447 11.9505 12.3715 11.6246C12.3361 11.5589 12.2932 11.4617 12.2022 11.4793C12.1402 11.492 12.1453 11.5867 12.1276 11.6473C11.8558 12.5769 11.0835 12.9634 10.1469 12.8964C9.99523 12.8851 9.84229 12.8623 9.6944 12.8257C9.33922 12.736 9.18122 12.5138 9.20271 12.1323C9.2103 12.0035 9.23431 11.8709 9.27223 11.7471C9.32153 11.5905 9.48711 11.6587 9.59076 11.6056C9.61604 11.593 9.63626 11.5741 9.71842 11.5185C9.27602 11.5248 9.19386 11.2343 9.11297 10.9426C9.08516 10.8441 9.06241 10.7392 8.99162 10.6647C8.85006 10.5144 8.89051 10.3818 9.003 10.2391C9.20903 9.98015 9.37209 9.70103 9.43276 9.36633C9.47068 9.1592 9.44287 8.95964 9.40621 8.75882C9.36829 8.54916 9.40242 8.36476 9.58317 8.23215C9.76898 8.09574 9.96616 8.11216 10.1608 8.21194C10.7283 8.49991 11.1657 8.90281 11.3591 9.53305C11.4248 9.74776 11.5133 9.95742 11.6068 10.162C11.7383 10.4449 11.9279 10.6799 12.211 10.8327C12.4638 10.9678 12.6332 11.1876 12.7659 11.4364C12.934 11.7509 13.0528 12.0906 13.2627 12.3837C13.3044 12.443 13.3145 12.5074 13.2551 12.5617C12.9542 12.8308 12.9757 13.1642 13.0629 13.5115C13.0819 13.5886 13.1009 13.6669 13.1148 13.7465C13.1426 13.8955 13.2386 13.9346 13.3726 13.9056C13.5104 13.8753 13.542 13.7818 13.5079 13.6568C13.4662 13.5014 13.4207 13.3473 13.4434 13.1844C13.451 13.1263 13.4497 13.0253 13.5534 13.0796C13.9857 13.3019 14.4483 13.4875 14.691 13.9612C14.624 14.0294 14.5734 13.9675 14.5229 13.9397C14.3825 13.8614 14.2473 13.7755 14.1057 13.6997C14.0122 13.6492 13.906 13.6214 13.8239 13.7123C13.7455 13.7982 13.767 13.9056 13.8138 14.0003C13.9553 14.2895 14.2031 14.4083 14.5115 14.3956C14.7377 14.3868 14.9046 14.4638 15.0335 14.6495C15.0992 14.7455 15.1245 14.8137 15.0373 14.9147C14.9425 15.0234 14.921 15.1724 15.0348 15.2722C15.2598 15.4679 15.3748 15.742 15.5669 15.958C15.6857 16.0919 15.8083 16.227 16.0396 16.2611C15.9309 16.0906 15.8336 15.9504 15.7489 15.8039C15.6175 15.5778 15.5758 15.3391 15.6908 15.0928C15.7199 15.0309 15.7338 14.9274 15.8197 14.9387C15.8943 14.9488 15.912 15.0461 15.9297 15.113C15.9828 15.3252 16.0295 15.5387 16.07 15.7534C16.0978 15.8986 16.161 15.9327 16.2735 15.8342C16.4416 15.6864 16.4947 15.8216 16.5237 15.9441C16.6084 16.3053 16.5579 16.6501 16.3657 16.9949C16.2457 16.8484 16.3986 16.6994 16.3051 16.5453C16.0131 16.7688 16.2684 17.1263 16.0889 17.37C15.9689 17.3233 15.9512 17.2172 15.9486 17.1073C15.9448 16.9469 15.9436 16.7865 15.9486 16.6261C15.9524 16.4922 15.8968 16.3975 15.7616 16.419C15.5151 16.4569 15.4418 16.3205 15.4013 16.1197C15.3874 16.0514 15.371 15.9757 15.304 15.9302C15.0714 16.1298 15.0525 16.371 15.3128 16.5175C15.7135 16.7423 15.668 17.0745 15.6137 17.4281C15.5897 17.5885 15.4721 17.5885 15.3659 17.5532C15.1599 17.4837 14.9754 17.3751 14.9374 17.1326C14.9197 17.0202 14.873 16.9469 14.7592 16.9116C14.3762 16.7928 14.2991 16.664 14.3813 16.246C14.4167 16.0666 14.4255 15.9125 14.2435 15.8102C14.2283 15.8014 14.2043 15.8089 14.1841 15.8089C14.1828 15.7988 14.1816 15.7887 14.1816 15.7786C14.1753 15.7799 14.1702 15.7812 14.1639 15.7837C14.1702 15.7913 14.179 15.7988 14.1866 15.8077ZM10.5893 9.28676C10.5969 9.2956 10.6108 9.31328 10.6121 9.31202C10.6361 9.29434 10.6234 9.28171 10.6032 9.2716C10.4376 8.85734 10.0938 8.66283 9.7121 8.77398C9.64258 8.79419 9.51744 8.81313 9.56674 8.91796C9.68682 9.17309 9.68556 9.456 9.78036 9.71492C9.80564 9.78312 9.83976 9.86648 9.92319 9.86143C10.1216 9.85006 10.3087 9.76039 10.4604 9.6543C10.5956 9.56083 10.401 9.44716 10.382 9.33476C10.3808 9.32339 10.3896 9.30949 10.3984 9.2855C10.4604 9.28676 10.5248 9.28676 10.5893 9.28676Z" fill="#EFAE1C"/>
<path d="M12.5207 17.8664C13.6381 17.8664 14.7554 17.8676 15.8716 17.8664C16.2217 17.8664 16.5718 17.8563 16.9219 17.8588C17.2 17.8613 17.2721 17.9321 17.2758 18.2112C17.2796 18.4512 17.2632 18.6924 17.2632 18.9324C17.2632 19.1041 17.1633 19.166 17.0142 19.1685C16.8613 19.1698 16.7083 19.1521 16.5554 19.1521C13.9781 19.166 11.4021 19.1812 8.8248 19.1938C8.59096 19.1951 8.35712 19.1925 8.12455 19.185C7.87428 19.1774 7.74914 19.0549 7.7403 18.8048C7.73398 18.6078 7.73524 18.4107 7.74661 18.2137C7.76178 17.951 7.85026 17.8639 8.11696 17.8601C8.43043 17.855 8.7439 17.8702 9.05864 17.8702C10.2127 17.8714 11.3654 17.8702 12.5194 17.8702C12.5207 17.8702 12.5207 17.8676 12.5207 17.8664Z" fill="#EFAE1C"/>
<path d="M11.2946 6.41971C13.2879 5.74778 15.3672 6.86302 15.8248 8.82069C16.094 9.97635 15.7085 10.9678 14.7605 11.5538C14.4786 11.7281 14.3939 11.6827 14.3649 11.3543C14.3396 11.0714 14.3042 10.7897 14.4281 10.5144C14.4811 10.3969 14.4217 10.2782 14.3358 10.1948C14.0981 9.96624 13.9528 9.68459 13.8264 9.38778C13.3119 8.17908 12.5106 7.21161 11.4021 6.5018C11.3705 6.48286 11.3452 6.45886 11.2946 6.41971Z" fill="#EFAE1C"/>
<path d="M17.0041 9.17182C16.9143 9.11499 16.8334 9.05562 16.745 9.01142C16.6072 8.94195 16.6261 8.87123 16.7235 8.78281C16.8044 8.70956 16.9156 8.67293 16.9813 8.55926C16.8789 8.47338 16.702 8.45317 16.6919 8.27761C16.6818 8.11973 16.8284 8.049 16.9055 7.9227C16.8486 7.89365 16.7981 7.86713 16.7488 7.84187C16.5756 7.75093 16.5402 7.62084 16.659 7.46676C16.7475 7.35309 16.7424 7.29625 16.592 7.25836C16.4226 7.21542 16.3923 7.08028 16.4226 6.92998C16.4542 6.77589 16.4214 6.69001 16.2406 6.70642C16.0548 6.72284 16.0055 6.63696 16.0763 6.46898C16.1395 6.31868 16.1585 6.20501 15.9246 6.22143C15.7578 6.23279 15.6643 6.1267 15.6782 5.95872C15.6921 5.78822 15.6314 5.7579 15.4784 5.81095C15.3002 5.87284 15.2016 5.8059 15.2143 5.60887C15.2231 5.46488 15.1827 5.3891 15.0158 5.42699C14.8679 5.4611 14.758 5.40173 14.7125 5.25017C14.6758 5.12892 14.6126 5.08472 14.4862 5.14029C14.3219 5.21228 14.2069 5.15797 14.1411 4.98873C14.1146 4.92053 14.1045 4.83085 13.9806 4.91042C13.6355 5.13019 13.6178 5.11882 13.4839 4.7235C13.3613 4.79801 13.2892 4.95589 13.1299 4.95084C12.9378 4.94579 12.9328 4.76139 12.8266 4.61362C12.8114 4.64645 12.8026 4.67677 12.7861 4.6995C12.7103 4.80559 12.6471 4.96978 12.5485 4.99631C12.4562 5.02157 12.3855 4.83969 12.3046 4.75002C12.2401 4.67929 12.1984 4.68813 12.1567 4.76139C12.1276 4.81191 12.1036 4.86495 12.077 4.91674C11.9557 5.15166 11.8849 5.16681 11.7269 4.95337C11.6182 4.80686 11.5613 4.87253 11.5209 4.98241C11.4488 5.18197 11.3502 5.19334 11.2099 5.05062C11.1189 4.95842 11.0456 4.94958 10.9774 5.08219C10.8965 5.23881 10.7612 5.26912 10.6058 5.19965C10.4604 5.13524 10.3188 5.06072 10.1482 4.97736C11.5841 4.08568 13.0528 3.83813 14.605 4.52773C16.204 5.23754 17.1836 6.44624 17.444 8.19173C17.5501 8.90406 17.516 9.61261 17.2594 10.301C17.018 10.9501 16.9788 11.6385 16.9042 12.3192C16.8372 12.9331 16.6792 13.5381 16.7209 14.1645C16.7323 14.3287 16.6299 14.3628 16.4884 14.2807C16.2052 14.1178 16.0182 13.749 16.089 13.4206C16.2128 12.8434 16.137 12.2927 15.931 11.7484C15.7666 11.3139 15.8046 11.2141 16.2204 11.0082C16.3455 10.9464 16.3948 10.8731 16.3721 10.738C16.3493 10.5965 16.3746 10.4689 16.5427 10.4348C16.702 10.402 16.654 10.3287 16.5971 10.2378C16.4391 9.98141 16.4429 9.98394 16.7374 9.87658C16.7778 9.86143 16.9169 9.89426 16.8385 9.75281C16.6527 9.42064 16.6565 9.41937 17.0041 9.17182Z" fill="#EFAE1C"/>
<path d="M12.1554 8.92177C12.5308 9.12764 12.7874 9.41181 12.8367 9.82103C12.8746 10.133 12.9707 10.3944 13.1603 10.6508C13.3764 10.9426 13.1994 11.2457 13.0857 11.5514C12.9618 11.4478 12.9428 11.319 12.915 11.1939C12.8936 11.0941 12.8695 10.9956 12.8405 10.8984C12.8152 10.8125 12.7684 10.7152 12.6837 10.7026C12.5801 10.6875 12.6395 10.8403 12.5447 10.8883C12.3311 10.6054 12.1187 10.3224 11.9038 10.0408C11.8369 9.95365 11.9001 9.89429 11.9342 9.82482C12.034 9.624 12.005 9.52801 11.7989 9.48507C11.6245 9.44844 11.5322 9.36129 11.4918 9.19331C11.4766 9.1289 11.4223 9.07333 11.3881 9.01649C11.4185 8.9685 11.4665 8.97229 11.507 8.96471C11.5777 8.95208 11.6662 8.95587 11.6776 8.86114C11.689 8.76894 11.6245 8.7159 11.5423 8.68432C11.3527 8.61359 11.1884 8.48603 10.9824 8.44814C10.8547 8.42414 10.7738 8.32562 10.7802 8.1968C10.7903 8.01366 10.6879 7.97072 10.54 7.96567C10.4376 7.96188 10.3378 7.96946 10.4048 7.81032C10.4465 7.70928 10.3517 7.71054 10.291 7.7017C10.1381 7.68149 10.0091 7.76232 9.87135 7.80653C9.75506 7.84442 9.6413 7.89494 9.59327 7.72317C9.54777 7.56024 9.62992 7.42005 9.79045 7.39479C9.90927 7.37584 10.0205 7.42005 10.1355 7.44152C10.4503 7.50088 10.765 7.5615 11.0595 7.69665C11.3578 7.83431 11.6068 8.02503 11.7661 8.33194C11.8937 8.06418 11.8331 7.86336 11.5638 7.66886C11.1581 7.3771 10.7144 7.16239 10.2227 7.05125C9.9434 6.9881 9.77149 6.74434 9.80436 6.47279C9.82332 6.31744 9.88272 6.24797 10.0673 6.29091C11.6308 6.65087 12.6408 7.67517 13.3764 9.03039C13.4838 9.22868 13.5786 9.43455 13.676 9.63789C13.7518 9.79577 13.6949 9.90691 13.542 9.97133C13.4017 10.0307 13.3284 9.97638 13.2525 9.83998C13.0313 9.44592 12.7886 9.06449 12.551 8.68053C12.5106 8.61485 12.4663 8.52392 12.369 8.55549C12.2401 8.59844 12.3576 8.67169 12.3639 8.72979C12.3804 8.87882 12.2729 8.88893 12.1554 8.92177Z" fill="#EFAE1C"/>
<path d="M12.5207 20.4417C13.4118 20.4417 14.3029 20.4417 15.194 20.4417C15.5391 20.4417 15.6175 20.5212 15.5682 20.8597C15.5366 21.0732 15.5795 21.2816 15.5707 21.4925C15.5644 21.6466 15.5302 21.7817 15.3659 21.8461C15.1245 21.9396 15.0259 21.8689 15.0221 21.6137C15.0196 21.4609 14.9968 21.3094 14.9766 21.1578C14.9577 21.0163 14.8768 20.9342 14.7276 20.9342C14.5582 20.9342 14.466 21.0277 14.4558 21.1868C14.4432 21.3978 14.4495 21.6099 14.447 21.8209C14.4457 21.9093 14.4432 22.0027 14.3674 22.0621C14.2713 22.1379 14.1588 22.1682 14.04 22.1253C13.9275 22.0836 13.9616 21.9813 13.9604 21.8992C13.9566 21.7021 13.9629 21.5051 13.9578 21.3081C13.9515 21.0694 13.8403 20.9279 13.6608 20.9153C13.4725 20.9014 13.3309 21.0416 13.3145 21.2866C13.298 21.5342 13.3018 21.783 13.3031 22.0305C13.3044 22.1834 13.2639 22.292 13.0869 22.2894C12.9176 22.2869 12.8898 22.172 12.8872 22.0356C12.8834 21.7805 12.8834 21.5253 12.8746 21.2702C12.8683 21.0694 12.7709 20.938 12.5611 20.9153C12.3526 20.8926 12.1933 21.0037 12.1516 21.2222C12.0998 21.495 12.1288 21.7741 12.1314 22.0507C12.1326 22.1303 12.1566 22.2162 12.0606 22.2591C11.9759 22.297 11.8874 22.297 11.8078 22.2503C11.7218 22.201 11.7433 22.1202 11.7496 22.0368C11.7711 21.7691 11.7673 21.5001 11.7345 21.2336C11.7054 21.0024 11.5891 20.9077 11.3894 20.9254C11.1771 20.9443 11.1088 21.0807 11.1101 21.2727C11.1101 21.4912 11.1075 21.711 11.1101 21.9295C11.1113 22.0722 11.0759 22.177 10.9053 22.172C10.7473 22.1669 10.6361 22.1152 10.6297 21.9333C10.6222 21.7224 10.6057 21.5114 10.5981 21.3005C10.588 21.0328 10.516 20.9317 10.3289 20.933C10.1469 20.9342 10.061 21.0391 10.0622 21.3043C10.0635 21.4559 9.98891 21.6024 10.047 21.7577C10.0761 21.836 10.0142 21.8739 9.94214 21.8916C9.72599 21.9446 9.55915 21.8284 9.52628 21.6024C9.48204 21.2904 9.49595 20.9759 9.50227 20.6627C9.50606 20.4796 9.61603 20.4379 9.77908 20.4379C10.6942 20.4429 11.6081 20.4417 12.5207 20.4417Z" fill="#EFAE1C"/>
<path d="M12.1984 12.3281C12.2009 12.5251 12.1895 12.6817 12.1453 12.832C12.01 13.2956 12.096 13.7263 12.3273 14.1367C12.7166 14.8251 12.6648 15.2078 12.0973 15.7648C11.5563 16.2952 10.9003 16.496 10.1545 16.4228C9.97754 16.4051 9.82965 16.3293 9.76519 16.15C9.70452 15.982 9.75255 15.833 9.86631 15.7041C9.99271 15.5627 10.1242 15.4263 10.2544 15.2873C10.3251 15.2128 10.4136 15.1623 10.5046 15.1143C10.6121 15.0587 10.7865 15.1168 10.8307 14.9766C10.8826 14.8137 10.9015 14.6369 10.8838 14.4601C10.851 14.138 10.741 13.8361 10.6411 13.5317C10.5274 13.1857 10.5893 13.0758 10.942 13.0164C11.3073 12.9546 11.6068 12.7651 11.8963 12.5542C11.9873 12.486 12.0783 12.4165 12.1984 12.3281Z" fill="#EFAE1C"/>
<path d="M16.1888 9.68333C16.1584 8.83206 15.9107 8.06415 15.3963 7.38465C14.5153 6.22268 13.0326 5.70105 11.6182 6.05975C11.2567 6.15068 11.0873 6.04459 11.0721 5.72C11.0658 5.60001 11.1139 5.52297 11.2276 5.49013C12.6483 5.07334 13.9907 5.19711 15.1839 6.13174C16.0017 6.77335 16.453 7.62462 16.4555 8.68049C16.4555 9.03288 16.3657 9.3701 16.1888 9.68333Z" fill="#EFAE1C"/>
<path d="M9.86754 15.1825C9.75504 15.3227 9.63876 15.4604 9.53258 15.6056C9.12558 16.1588 9.29242 16.611 9.96234 16.7701C10.9002 16.9924 11.7041 16.7221 12.4031 16.0893C12.5434 15.9618 12.6711 15.8203 12.8013 15.6839C12.8695 15.6119 12.9365 15.5728 13.0237 15.6574C13.1059 15.737 13.116 15.8178 13.0364 15.9049C13.0022 15.9428 12.9668 15.9795 12.9327 16.0173C12.6622 16.323 12.6483 16.4114 12.8367 16.7701C12.8872 16.8673 12.867 16.9393 12.8025 17.0063C12.7532 17.0581 12.6964 17.1136 12.6319 17.1402C11.5069 17.6075 10.3731 17.7792 9.23049 17.1995C8.47589 16.8168 8.38741 16.3243 8.95367 15.689C9.1951 15.4187 9.48961 15.2368 9.86754 15.1825Z" fill="#EFAE1C"/>
<path d="M8.26862 19.5828C11.1139 19.5828 13.9591 19.5828 16.8347 19.5828C16.7361 19.7003 16.616 19.7483 16.5048 19.8026C16.1054 19.9983 15.6794 20.0905 15.2357 20.0893C14.1639 20.088 13.0907 20.0779 12.0189 20.0779C11.2605 20.0779 10.5021 20.0918 9.74369 20.0981C9.19259 20.1044 8.71733 19.8847 8.26862 19.5828Z" fill="#EFAE1C"/>
<path d="M13.4712 11.3114C13.5825 11.5766 13.6874 11.8216 13.7872 12.0692C13.9136 12.3837 14.0918 12.6464 14.4344 12.76C14.557 12.8005 14.5583 12.8636 14.4799 12.971C14.2612 13.2703 14.1765 13.2867 13.9161 13.043C13.5028 12.6565 13.2879 11.8519 13.4712 11.3114Z" fill="#EFAE1C"/>
<path d="M13.4346 10.4752C13.4434 10.2302 13.59 10.1065 13.8555 10.1191C14.083 10.1304 14.2347 10.2946 14.2246 10.5182C14.2145 10.7481 14.0388 10.9021 13.8011 10.8908C13.5521 10.8794 13.4245 10.7342 13.4346 10.4752Z" fill="#EFAE1C"/>
<path d="M12.843 16.443C12.9896 16.1487 13.202 15.9074 13.4497 15.6738C13.4902 16.0438 13.2981 16.3015 12.8771 16.4707C12.8658 16.4619 12.8544 16.4518 12.843 16.443Z" fill="#EFAE1C"/>
<path d="M14.9627 13.9245C15.4772 14.0091 15.6895 14.2617 15.6807 14.767C15.5201 14.4373 15.237 14.2138 14.9627 13.9245Z" fill="#EFAE1C"/>
<path d="M12.8771 16.4708C12.8632 16.4771 12.8493 16.4834 12.8342 16.4897C12.8367 16.4733 12.8392 16.4581 12.8418 16.4417C12.8544 16.4518 12.8658 16.4619 12.8771 16.4708Z" fill="#EFAE1C"/>
<path d="M14.1866 15.8077C14.179 15.8001 14.1714 15.7925 14.1626 15.7837C14.1689 15.7824 14.174 15.7812 14.1803 15.7786C14.1816 15.7887 14.1828 15.7988 14.1828 15.8089C14.1841 15.8089 14.1866 15.8077 14.1866 15.8077Z" fill="#203163"/>
</svg>
