<svg width="50" height="50" viewBox="0 0 50 50" fill="none" xmlns="http://www.w3.org/2000/svg">
<path d="M1 25C1 28.1517 1.62078 31.2726 2.82689 34.1844C4.033 37.0962 5.80083 39.742 8.02944 41.9706C10.258 44.1992 12.9038 45.967 15.8156 47.1731C18.7274 48.3792 21.8483 49 25 49C28.1517 49 31.2726 48.3792 34.1844 47.1731C37.0962 45.967 39.742 44.1992 41.9706 41.9706C44.1992 39.742 45.967 37.0962 47.1731 34.1844C48.3792 31.2726 49 28.1517 49 25C49 21.8483 48.3792 18.7274 47.1731 15.8156C45.967 12.9038 44.1992 10.258 41.9706 8.02944C39.742 5.80083 37.0962 4.033 34.1844 2.82689C31.2726 1.62078 28.1517 1 25 1C21.8483 1 18.7274 1.62078 15.8156 2.82689C12.9038 4.033 10.258 5.80083 8.02944 8.02944C5.80083 10.258 4.033 12.9038 2.82689 15.8156C1.62078 18.7274 1 21.8483 1 25Z" fill="#D9D9D9"/>
<path d="M17 19.6667C17 21.7884 17.8429 23.8232 19.3431 25.3235C20.8434 26.8238 22.8783 27.6667 25 27.6667C27.1217 27.6667 29.1566 26.8238 30.6569 25.3235C32.1571 23.8232 33 21.7884 33 19.6667C33 17.5449 32.1571 15.5101 30.6569 14.0098C29.1566 12.5095 27.1217 11.6667 25 11.6667C22.8783 11.6667 20.8434 12.5095 19.3431 14.0098C17.8429 15.5101 17 17.5449 17 19.6667Z" fill="#D9D9D9"/>
<path d="M9.448 43.264C10.108 41.0673 11.4586 39.1418 13.2993 37.7733C15.1401 36.4047 17.3729 35.666 19.6667 35.6667H30.3333C32.63 35.6659 34.8656 36.4064 36.7077 37.7781C38.5498 39.1498 39.8999 41.0794 40.5573 43.28" fill="#D9D9D9"/>
<path d="M9.448 43.264C10.108 41.0673 11.4586 39.1418 13.2993 37.7733C15.1401 36.4047 17.3729 35.666 19.6667 35.6667H30.3333C32.63 35.6659 34.8656 36.4064 36.7077 37.7781C38.5498 39.1498 39.8999 41.0794 40.5573 43.28M1 25C1 28.1517 1.62078 31.2726 2.82689 34.1844C4.033 37.0962 5.80083 39.742 8.02944 41.9706C10.258 44.1992 12.9038 45.967 15.8156 47.1731C18.7274 48.3792 21.8483 49 25 49C28.1517 49 31.2726 48.3792 34.1844 47.1731C37.0962 45.967 39.742 44.1992 41.9706 41.9706C44.1992 39.742 45.967 37.0962 47.1731 34.1844C48.3792 31.2726 49 28.1517 49 25C49 21.8483 48.3792 18.7274 47.1731 15.8156C45.967 12.9038 44.1992 10.258 41.9706 8.02944C39.742 5.80083 37.0962 4.033 34.1844 2.82689C31.2726 1.62078 28.1517 1 25 1C21.8483 1 18.7274 1.62078 15.8156 2.82689C12.9038 4.033 10.258 5.80083 8.02944 8.02944C5.80083 10.258 4.033 12.9038 2.82689 15.8156C1.62078 18.7274 1 21.8483 1 25ZM17 19.6667C17 21.7884 17.8429 23.8232 19.3431 25.3235C20.8434 26.8238 22.8783 27.6667 25 27.6667C27.1217 27.6667 29.1566 26.8238 30.6569 25.3235C32.1571 23.8232 33 21.7884 33 19.6667C33 17.5449 32.1571 15.5101 30.6569 14.0098C29.1566 12.5095 27.1217 11.6667 25 11.6667C22.8783 11.6667 20.8434 12.5095 19.3431 14.0098C17.8429 15.5101 17 17.5449 17 19.6667Z" stroke="white" stroke-width="2" stroke-linecap="round" stroke-linejoin="round"/>
</svg>
