<svg width="31" height="23" viewBox="0 0 31 23" fill="none" xmlns="http://www.w3.org/2000/svg">
<path d="M18.9869 6.80369C18.662 6.48582 18.3757 6.45336 18.3757 6.45336H15.2532C14.7249 6.45336 14.2976 6.0354 14.2976 5.5187V1.24036C14.2976 0.723655 14.7249 0.305695 15.2532 0.305695H19.594C20.1223 0.305695 20.5496 0.723655 20.5496 1.24036V4.09033C20.5496 4.09033 20.5164 4.57457 20.941 4.9249C20.2246 4.9249 19.6715 4.82886 19.3133 5.24276C18.8888 5.7527 18.9869 5.84738 18.9869 6.80369Z" fill="#00AEEF"/>
<path d="M25.7671 16.594C26.0921 16.2761 26.3784 16.2436 26.3784 16.2436H29.5009C30.0292 16.2436 30.4565 15.8257 30.4565 15.309V11.0306C30.4565 10.5139 30.0292 10.096 29.5009 10.096H25.1601C24.6318 10.096 24.2045 10.5139 24.2045 11.0306V13.8806C24.2045 13.8806 24.2377 14.3648 23.8131 14.7152C24.5295 14.7152 25.0826 14.6191 25.4408 15.033C25.8653 15.543 25.7671 15.6376 25.7671 16.594Z" fill="#00AEEF"/>
<path d="M23.9183 11.6907C23.5933 11.3728 23.307 11.3404 23.307 11.3404H20.1845C19.6562 11.3404 19.2289 10.9224 19.2289 10.4057V6.12873C19.2289 5.61203 19.6562 5.19407 20.1845 5.19407H24.5253C25.0536 5.19407 25.4809 5.61203 25.4809 6.12873V8.9787C25.4809 8.9787 25.4477 9.46294 25.8723 9.81327C25.1559 9.81327 24.6028 9.71723 24.2446 10.1311C23.8214 10.6397 23.9183 10.7358 23.9183 11.6907Z" fill="#15688E"/>
<path d="M24.3622 21.0251H20.4569C19.8084 21.0251 19.2842 20.5111 19.2842 19.8781V16.0583C19.2842 15.4239 19.8097 14.9113 20.4569 14.9113H24.3622C25.0107 14.9113 25.5348 15.4253 25.5348 16.0583V19.8781C25.5348 20.5111 25.0094 21.0251 24.3622 21.0251Z" fill="#015E88"/>
<path d="M30.1301 21.531H27.3754C26.8956 21.531 26.5056 21.151 26.5056 20.6802V17.9858C26.5056 17.5165 26.8942 17.135 27.3754 17.135H30.1301C30.61 17.135 31 17.5151 31 17.9858V20.6802C31 21.1496 30.61 21.531 30.1301 21.531Z" fill="#90D6F7"/>
<path d="M25.2458 4.39602H22.4911C22.0112 4.39602 21.6213 4.01593 21.6213 3.54522V0.850799C21.6213 0.381439 22.0099 0 22.4911 0H25.2458C25.7257 0 26.1156 0.380087 26.1156 0.850799V3.54522C26.1156 4.01458 25.7257 4.39602 25.2458 4.39602Z" fill="#90D6F7"/>
<path d="M14.7429 17.6571C14.7429 15.9433 14.7443 14.2296 14.7401 12.5158C14.7401 12.3805 14.765 12.3386 14.9144 12.34C15.8589 12.3481 16.802 12.3467 17.7465 12.3413C17.8737 12.34 17.9083 12.3711 17.9083 12.4982C17.9028 13.7873 17.9042 15.0777 17.9056 16.3667C17.9069 18.0805 17.8986 19.7942 17.918 21.508C17.9263 22.2952 17.2528 23.0148 16.4037 22.9986C15.9045 22.9891 15.4053 22.9918 14.9061 23C14.7802 23.0013 14.7567 22.9634 14.7567 22.8485C14.7609 21.1185 14.7595 19.3885 14.7595 17.6598C14.7526 17.6571 14.7471 17.6571 14.7429 17.6571Z" fill="black"/>
<path d="M17.9042 9.87953C17.9042 10.3462 17.9015 10.8128 17.907 11.2795C17.9084 11.3823 17.8932 11.4256 17.7701 11.4256C16.8104 11.4202 15.8507 11.4215 14.8896 11.4256C14.7776 11.4256 14.743 11.3985 14.7444 11.2863C14.7513 10.7871 14.754 10.2894 14.7457 9.79025C14.7305 8.98139 15.4648 8.29561 16.2503 8.32942C16.7482 8.35107 17.2488 8.33754 17.7466 8.33078C17.8669 8.32942 17.9042 8.35783 17.9029 8.47956C17.8959 8.94622 17.9001 9.41287 17.9001 9.87953C17.9015 9.87953 17.9029 9.87953 17.9042 9.87953Z" fill="black"/>
<path d="M13.4264 8.55127L13.425 9.90254C13.4236 10.7222 12.7446 11.3864 11.9052 11.3864H8.35259V21.2294C8.35259 22.1059 8.19909 22.9932 6.62537 22.9932H5.74033C5.49694 22.9932 5.29781 23.0378 5.29781 22.8011V11.3864H0.00138486L1.95002e-06 9.87143C-0.00138093 8.98817 0.732927 8.35243 1.63595 8.35785L13.2964 8.42142C13.4125 8.42412 13.4264 8.43224 13.4264 8.55127Z" fill="black"/>
</svg>
