<?xml version="1.0" encoding="utf-8"?>
<!-- Generator: Adobe Illustrator 24.1.2, SVG Export Plug-In . SVG Version: 6.00 Build 0)  -->
<svg version="1.1" id="Layer_1" xmlns="http://www.w3.org/2000/svg" xmlns:xlink="http://www.w3.org/1999/xlink" x="0px" y="0px"
	 viewBox="0 0 595.3 536.2" style="enable-background:new 0 0 595.3 536.2;" xml:space="preserve">
<style type="text/css">
	.st0{fill:#FFFFFF;}
	.st1{fill:#E0E0E0;}
	.st2{display:none;fill:#FFFFFF;}
</style>
<g id="logo-mono-2022">
	<g id="logo">
		<g id="border">
			<path class="st0" d="M366.6,439.7c-18.9,19.3-41.6,37.5-68.8,53.4c-5.2-2.9-50-29.3-91.4-82.4c-19.9-25.6-41-60.2-55.6-104
				c-0.7,0.3-1.4,0.4-2.1,0.4c12.5,37.8,31.4,73.1,56.2,104.9c44,56.4,91.9,82.8,92.4,83.1l0.5,0.3l0.5-0.3
				c26.1-15.2,49.3-33.1,69.5-53.6C367.2,441,366.8,440.4,366.6,439.7z"/>
			<path class="st0" d="M460.6,140.4l-0.1-0.8l-0.8-0.1c-66.9-5.9-107-36.5-128.9-61.2C307,51.6,299,25.9,298.9,25.6l-0.9-3.1
				l-1,3.1c-17,53.6-60.4,82.2-93.8,96.8c-36.3,15.9-69,19.1-69.3,19.1l-0.8,0.1l-0.1,0.8c-4.6,41.3-3.3,81.1,3.8,118.9
				c0.6-0.4,1.3-0.7,2-0.8c-6.5-34.5-8.7-73.5-3.9-117c5.3-0.6,35.7-4.6,69-19.2c33.2-14.5,76.2-42.8,94-95.3
				c2.8,7.5,11.8,28.7,31.2,50.6c22.1,24.9,62.4,55.8,129.5,61.9c1,7.2,8.5,63.6-5.8,132c-7.8,37.4-23.1,82.7-53.1,125.9
				c0.6,0.5,1.1,1.1,1.5,1.7c2.5-3.5,4.9-7.2,7.2-10.8c21.8-34.3,37.4-73.4,46.4-116.4C470.1,200.6,460.7,141,460.6,140.4z"/>
		</g>
		<path id="shield-1" class="st0" d="M456.9,144C328.8,130.4,298,32.8,298,32.8c-31.7,97.7-160.9,113.6-160.9,113.6
			c-4.7,33.6-0.6,74.9-0.6,74.9h144.8c1.7,1.9,9.3,9.8,19.5,10.2c0.2,0,0.5,0,0.7,0c6.9,0,13.6-3.4,19.9-10.2h135.5
			C461.1,191.1,456.9,144,456.9,144z M415.8,145.4L333,191.9l68.7-51.4L415.8,145.4z M371,128.1l-40.8,41.8c33-47,33-47,33-47
			L371,128.1z M338.1,110.8l5.5,4l-19.7,30.6L338.1,110.8z M259.2,105.3l12.9,27.4l-18-24.7L259.2,105.3z M235.5,122.8l34.8,47
			l-43-42.7L235.5,122.8z M197.2,140.5l69.1,51.4l-82.2-47.8L197.2,140.5z M148,175.3v-14.8l122.8,47.6L148,175.3z M286.7,156.2
			c0,0-1.1,7.9,3.6,8.7c0,0,4.1-1,2-7.3c0,0-9.2-16,1.6-35.3c0,0,6.5-6.8,0.1-22.8c0,0,15.8,5.7,11.6,25.2c0,0-5.3,15.3,0.7,21.7
			c0,0,4.6,2.6,3.4-3c0,0,0-1.9-0.8-7.9c0,0-2.9-6.3,6.1-16.3c0,0-2.7,9.2,0.9,18.9l8.4,21.7c0,0,9,26.8-15.1,33.2
			c0,0-17.1,1-21.9-0.8c0,0-15.5-1.6-14.2-23.4l1.8-6.7c0,0,6.9-11.9-2.8-24.5C272.1,137.7,287,139.6,286.7,156.2z M320.7,221.2
			c-6.3,6.7-13,10-19.9,9.7c-9.5-0.3-16.7-7.4-18.8-9.7h0c-2.5-3.1-4.8-7.4-6.2-13.1h50.1C325.9,208.1,325.4,215.1,320.7,221.2z
			 M326.1,207.6h-50.4v-5.7h50.4V207.6z M328.8,198.4c0,1.4-1.2,2.6-2.6,2.6h-51c-1.4,0-2.6-1.2-2.6-2.6v-1.9c0-1.4,1.2-2.6,2.6-2.6
			h51c1.4,0,2.6,1.2,2.6,2.6V198.4z M449.5,175.7l-119.4,32.5l119.4-45.4L449.5,175.7L449.5,175.7z"/>
		<path class="st1" d="M313.8,390.5c0,0,11.5-12.8,15.2-44.2c0,0-14.9,8.3-38.5,15l-0.8,5.8C289.8,367.2,303.8,386.2,313.8,390.5z"
			/>
		<g>
			<path class="st0" d="M311.8,307.5l4.6-70.9c0.1-1.6-1.2-3-2.8-3l-25.5-0.6c-1.6,0-3,1.3-2.9,3l3.2,76.1
				C296,308,303.6,307.5,311.8,307.5z"/>
			<path class="st0" d="M306.5,390.2l2.9-44c-6.4,0.3-12.8,1.1-19.3,1l1.8,42.7C296.1,389.7,301.5,389.5,306.5,390.2z"/>
			<path class="st0" d="M303.3,429.9c-0.3,0-0.6,0-0.9,0.1c-1,0.4-2.1,0.4-3.4-0.1c-1.9-0.3-3.7-0.8-5.5-1.5l1.9,44
				c0.1,1.5,1.3,2.7,2.9,2.7h0.1c1.5,0,2.7-1.2,2.8-2.7l2.8-42.6C303.7,429.8,303.5,429.8,303.3,429.9z"/>
		</g>
		<g id="bastão">
			<path class="st0" d="M277.3,228.8h47.5c0,0-1.1,3.6-8.2,7l-31.3-0.2C285.2,235.6,280.6,234,277.3,228.8z"/>
			<path class="st2" d="M295.4,472.3L285.3,236c-0.1-1.6,1.3-3,2.9-3l25.5,0.6c1.6,0,2.9,1.4,2.8,3l-15.3,235.7
				c-0.1,1.5-1.3,2.7-2.8,2.7h-0.1C296.7,475,295.4,473.8,295.4,472.3z"/>
		</g>
		<g>
			<path class="st0" d="M180.8,299l-2.3-2l-3.7,4.2l2.3,2c0.8,0.7,1.6,1.1,2.4,1.1c0.8,0,1.4-0.3,2-1c0.6-0.7,0.8-1.4,0.7-2.1
				C182.2,300.5,181.7,299.8,180.8,299z"/>
			<path class="st0" d="M198.1,315.7l-2.8-2l-5.8,8.1l2.8,2c1.3,0.9,2.6,1.3,3.9,1.1s2.4-0.9,3.3-2.1s1.2-2.5,0.9-3.8
				S199.4,316.6,198.1,315.7z"/>
			<path class="st0" d="M294.7,327.3c-1.2-0.5-2.6-0.5-4.1,0.1l-3.2,1.2l3.5,9.3l3.2-1.2c1.5-0.6,2.5-1.4,3.1-2.6
				c0.6-1.2,0.6-2.5,0.1-3.9C296.8,328.8,295.9,327.8,294.7,327.3z"/>
			<polygon class="st0" points="272.7,339.2 277.7,338.3 274,332.7 			"/>
			<path class="st0" d="M227.9,329.8L225,329l-1.6,5.4l2.9,0.9c1.1,0.3,2,0.3,2.6,0c0.7-0.3,1.2-0.9,1.4-1.7
				c0.3-0.9,0.2-1.6-0.3-2.2S229,330.1,227.9,329.8z"/>
			<path class="st0" d="M317.5,288.7c-69.7,55.6-128-9-128-9C77.3,180.1,42.9,269.4,42.9,269.4c22.4-15.9,55.1-6.7,55.1-6.7
				c-44.7,5.4-53.4,58.5-53.4,58.5c50.5-65,124.7,9.9,124.7,9.9c65.5,68.2,160.1,11,160.1,11C337.5,304,317.5,288.7,317.5,288.7z
				 M141.4,283.3l-1.3,2.7l-11.3-5.3l6.8-14.6l11,5.2l-1.3,2.7l-7.7-3.6l-1.5,3.2l6.8,3.2l-1.2,2.6l-6.8-3.2l-1.6,3.4L141.4,283.3z
				 M153,293.8l-10.6-6.5l8.4-13.7l10.4,6.4l-1.6,2.5l-7.2-4.4l-1.8,3l6.4,3.9l-1.5,2.5l-6.4-3.9l-1.9,3.2l7.5,4.6L153,293.8z
				 M165.1,302.7l-10-7.4l9.6-12.9l9.8,7.3l-1.8,2.4l-6.8-5l-2.1,2.8l6,4.5l-1.7,2.3l-6-4.5l-2.2,3l7,5.2L165.1,302.7z M181.7,307.7
				c-1,0.3-2.1,0.3-3.2-0.1s-2.2-1-3.3-1.9l-2.4-2.1l-2.9,3.3l-2.8-2.5l10.6-12.1l5.2,4.6c1.1,0.9,1.9,1.9,2.3,3
				c0.5,1,0.6,2.1,0.5,3.1s-0.6,2-1.4,2.9C183.6,306.8,182.7,307.4,181.7,307.7z M199.2,327.8c-1.3,0.5-2.7,0.7-4.2,0.5
				s-2.9-0.9-4.4-1.9l-5.9-4.3l9.4-13.1l5.9,4.3c1.4,1,2.5,2.2,3.2,3.5c0.7,1.3,1,2.7,0.9,4.1s-0.6,2.8-1.6,4.1
				C201.6,326.3,200.5,327.3,199.2,327.8z M215.1,332.2l-6.8-3.1l-1.6,3.4l7.9,3.7l-1.3,2.7l-11.3-5.3L209,319l11,5.1l-1.3,2.7
				l-7.7-3.6l-1.5,3.2l6.8,3.1L215.1,332.2z M234,334.6c-0.3,1.1-0.9,2-1.7,2.7c-0.8,0.7-1.8,1.1-2.9,1.3s-2.4,0-3.8-0.4l-3.1-0.9
				l-1.3,4.3l-3.6-1l4.5-15.5l6.7,2c1.4,0.4,2.5,1,3.4,1.7s1.5,1.6,1.8,2.6C234.4,332.3,234.3,333.4,234,334.6z M250.5,339.9
				c-0.3,2.3-1.1,4.1-2.6,5.2c-1.4,1.1-3.3,1.5-5.6,1.3s-4-1.1-5.1-2.5c-1.1-1.4-1.5-3.3-1.3-5.6l1.1-9l3.7,0.5l-1.1,8.8
				c-0.3,2.9,0.7,4.4,3,4.7c1.2,0.1,2.1-0.1,2.8-0.7s1.1-1.7,1.3-3.1l1.1-8.8l3.6,0.4L250.5,339.9z M261.7,346.7l-3.7,0.1l-0.5-13
				l-5.1,0.2l-0.1-3l14-0.6l0.1,3l-5.1,0.2L261.7,346.7z M281.5,343.9l-2-3.1l-7.3,1.4l-0.8,3.7l-3.8,0.7l4-17.2l3.6-0.7l10.1,14.5
				L281.5,343.9z M301.3,333.2c-0.3,1.4-0.9,2.6-1.9,3.7c-1,1.1-2.4,2-4,2.6l-6.9,2.6l-5.7-15.1l6.8-2.6c1.6-0.6,3.2-0.9,4.7-0.7
				s2.8,0.7,3.9,1.5c1.1,0.9,2,2.1,2.5,3.6C301.4,330.4,301.6,331.8,301.3,333.2z M318,327.7c-0.8,1.3-1.9,2.3-3.4,3.2
				c-1.5,0.8-2.9,1.3-4.5,1.3c-1.5,0-2.9-0.3-4.2-1s-2.3-1.8-3.1-3.1c-0.8-1.4-1.1-2.8-1.1-4.3s0.5-2.9,1.3-4.1
				c0.8-1.3,2-2.3,3.4-3.2s2.9-1.3,4.5-1.3s2.9,0.3,4.2,1c1.3,0.7,2.3,1.8,3.1,3.1s1.1,2.8,1.1,4.3C319.2,325,318.8,326.4,318,327.7
				z"/>
			<path class="st0" d="M313,319.1c-0.8-0.5-1.6-0.7-2.5-0.7s-1.7,0.2-2.6,0.7c-0.8,0.5-1.5,1.1-1.9,1.8s-0.7,1.6-0.7,2.5
				c0,0.9,0.3,1.8,0.7,2.6c0.5,0.9,1.1,1.5,1.9,2s1.6,0.7,2.5,0.7s1.7-0.2,2.6-0.7c0.8-0.5,1.5-1.1,1.9-1.8s0.7-1.6,0.7-2.5
				c0-0.9-0.3-1.8-0.7-2.6C314.4,320.3,313.8,319.6,313,319.1z"/>
			<path class="st0" d="M404,408.4c-0.7-0.2-1.6,0-2.6,0.5l-2.7,1.4l2.5,5l2.7-1.4c1-0.5,1.6-1.1,2-1.8c0.3-0.7,0.3-1.5-0.2-2.2
				C405.3,409,404.7,408.5,404,408.4z"/>
			<polygon class="st0" points="385.5,422.8 390.3,421.2 385.9,416.2 			"/>
			<path class="st0" d="M314.9,414.2c-0.5-0.7-1.2-1.3-2.1-1.7c-0.9-0.4-1.7-0.5-2.6-0.5s-1.7,0.4-2.4,0.9s-1.3,1.3-1.7,2.2
				s-0.6,1.8-0.5,2.7s0.4,1.7,0.9,2.4c0.5,0.7,1.2,1.3,2.1,1.7c0.9,0.4,1.7,0.5,2.6,0.5s1.7-0.4,2.4-0.9s1.3-1.3,1.7-2.2
				s0.6-1.8,0.5-2.7C315.7,415.7,315.4,414.9,314.9,414.2z"/>
			<polygon class="st0" points="424.4,403.2 429,401 424,396.6 			"/>
			<path class="st0" d="M524,386.7c19.3-2.6,40.5,8.3,40.5,8.3c-46.5-77.7-157.6-10.8-157.6-10.8c-76.8,50.4-117.3-16.3-117.3-16.3
				c-6.2,26.1-19.8,54.4-19.8,54.4c70.7,43.8,126.8,16.7,126.8,16.7c60.6-25.6,71.4-25.4,71.4-25.4c62.9-13.6,66.8,26.7,66.8,26.7
				C547.6,409.6,524,386.7,524,386.7z M344.7,413.4l3.8,0.4l-4.5,2.9l-2.8-0.3L344.7,413.4z M295.1,416.7c-1.4,0.3-2.8-0.1-4.4-1.2
				c-0.9-0.6-1.6-1.3-2.2-2.2c-0.5-0.8-0.8-1.7-0.9-2.7l3.1-0.9c0.1,1.5,0.6,2.5,1.5,3.1c1.3,0.8,2.4,0.5,3.4-1l4.3-6.4l-4.7-3.1
				l1.7-2.5l7.8,5.2l-5.8,8.7C297.7,415.4,296.5,416.4,295.1,416.7z M315.9,424.3c-1.2,0.8-2.6,1.3-4.1,1.4c-1.5,0.1-3-0.2-4.5-0.9
				s-2.7-1.6-3.7-2.9c-0.9-1.2-1.5-2.5-1.6-4c-0.2-1.5,0.1-2.9,0.7-4.4c0.6-1.4,1.6-2.6,2.8-3.4c1.2-0.8,2.6-1.3,4.1-1.4
				c1.5-0.1,3,0.2,4.6,0.9s2.7,1.6,3.7,2.9s1.5,2.5,1.6,4s-0.1,2.9-0.7,4.4S317.1,423.4,315.9,424.3z M325.9,420.4
				c0.5,0.4,1.3,0.9,2.3,1.4c1.1,0.6,2,1.1,2.7,1.6s1.2,1.1,1.6,1.9s0.4,1.6,0.2,2.7c-0.2,0.9-0.7,1.6-1.4,2.2
				c-0.7,0.6-1.6,1-2.7,1.1s-2.4,0.1-3.8-0.3c-1.2-0.3-2.4-0.8-3.4-1.4c-1.1-0.6-1.9-1.3-2.4-2l1.9-2.4c0.5,0.7,1.2,1.3,2.1,1.8
				s1.7,0.9,2.6,1.2c1,0.3,1.8,0.3,2.4,0.1s0.9-0.5,1-1c0.1-0.4,0-0.7-0.2-1c-0.2-0.3-0.5-0.6-1-0.9s-1-0.6-1.7-1
				c-1.1-0.6-2-1.1-2.7-1.6c-0.7-0.5-1.2-1.1-1.6-1.9s-0.4-1.7-0.1-2.7c0.2-0.9,0.7-1.7,1.4-2.3s1.6-1,2.7-1.2s2.4-0.1,3.8,0.3
				c1,0.3,1.9,0.6,2.8,1.1s1.6,1,2.2,1.7l-1.8,2.4c-1.2-1.2-2.5-2-4-2.4c-1-0.3-1.8-0.3-2.4-0.1c-0.6,0.2-0.9,0.6-1.1,1.1
				C325.2,419.5,325.4,420,325.9,420.4z M349,421.5l-8.4-0.9l-0.4,3.5l7.4,0.8l-0.3,2.9l-7.4-0.8l-0.4,3.7l8.7,0.9l-0.3,3l-12.4-1.3
				l1.7-16l12.1,1.3L349,421.5z M374.5,432.3l-1.5-9.5l-3.5,8.6l-1.7,0.3l-5.8-7l1.4,9.3l-3.5,0.5l-2.4-15.9l3-0.5l7.5,9l4.4-10.8
				l3-0.5l2.5,15.9L374.5,432.3z M394.8,426.3l-2.5-2.8l-7.1,2.4l-0.2,3.7l-3.6,1.3l1.5-17.6l3.5-1.2l12.1,12.9L394.8,426.3z
				 M410.4,419l-4.8-2.6l-0.2,0.1l-2.9,1.5l2,4l-3.3,1.7l-7.3-14.3l6.2-3.1c1.3-0.6,2.5-1,3.6-1c1.1,0,2.2,0.2,3.1,0.7
				s1.6,1.3,2.2,2.4s0.8,2.1,0.6,3.1s-0.5,2-1.3,2.9l5.6,3L410.4,419z M417,414.5l-8.2-13.9l3.2-1.9l8.2,13.9L417,414.5z
				 M434.1,405.6l-2.8-2.5l-6.7,3.2l0.2,3.7l-3.4,1.6l-0.5-17.6l3.3-1.6l13.5,11.4L434.1,405.6z M458.7,397.3l-2.6-9.3l-2.4,8.9
				l-1.6,0.5l-6.6-6.2l2.5,9.1l-3.4,0.9l-4.3-15.5l3-0.8l8.5,8l3-11.2l3-0.8l4.4,15.5L458.7,397.3z M465.4,395.9l-2.2-16l12-1.7
				l0.4,3l-8.4,1.2l0.5,3.5l7.4-1l0.4,2.9l-7.4,1l0.5,3.7l8.7-1.2l0.4,3L465.4,395.9z M480.2,394.1l-0.4-16.1l3.7-0.1l0.3,13.1
				l8.1-0.2l0.1,3L480.2,394.1z M510.7,387.5c-0.2,1.6-0.7,2.9-1.6,4.1s-2,2-3.5,2.6c-1.4,0.6-2.9,0.8-4.6,0.6
				c-1.7-0.2-3.1-0.7-4.4-1.5c-1.3-0.9-2.2-2-2.8-3.3s-0.9-2.8-0.7-4.4s0.7-2.9,1.6-4.1c0.9-1.2,2-2,3.5-2.6c1.4-0.6,3-0.8,4.6-0.6
				c1.7,0.2,3.1,0.7,4.4,1.5c1.3,0.9,2.2,2,2.8,3.3C510.7,384.5,510.9,386,510.7,387.5z"/>
			<path class="st0" d="M505,382.4c-0.7-0.5-1.5-0.8-2.5-0.9c-1-0.1-1.8,0-2.6,0.4s-1.5,0.9-2,1.6s-0.8,1.6-0.9,2.6
				c-0.1,1,0,1.9,0.4,2.7s0.9,1.5,1.6,2c0.7,0.5,1.5,0.8,2.5,0.9s1.8,0,2.6-0.4s1.5-0.9,2-1.6s0.8-1.6,0.9-2.6s0-1.9-0.4-2.7
				S505.7,382.9,505,382.4z"/>
		</g>
	</g>
</g>
</svg>
